<svg width="17" height="23" viewBox="0 0 17 23" fill="none" xmlns="http://www.w3.org/2000/svg">
<path d="M0.09375 23V0.375H8.75C13.6562 0.375 16.0938 2.875 16.0938 6.25C16.0938 9 14.3438 10.5312 12.125 11.0625V11.2812C14.5312 11.4062 16.9688 13.4062 16.9688 16.8438C16.9688 20.375 14.4375 23 9.25 23H0.09375ZM8.625 19.5938C11.5938 19.5938 12.8438 18.3125 12.8438 16.5312C12.8438 14.5 11.25 12.9375 8.71875 12.9375H4.15625V19.5938H8.625ZM8.25 10C10.4062 10 12.0312 8.75 12.0312 6.75C12.0312 5 10.7812 3.75 8.34375 3.75H4.15625V10H8.25Z" fill="black"/>
</svg>
