<svg width="31" height="36" viewBox="0 0 31 36" fill="none" xmlns="http://www.w3.org/2000/svg">
<path d="M12.1385 32.3285C12.1385 34.1398 13.604 35.6053 15.4153 35.6053C17.2266 35.6053 18.6921 34.1398 18.6921 32.3285H12.1385ZM15.4153 7.61269C19.96 7.61269 23.6485 11.3011 23.6485 15.8458V27.3722H7.1822V15.8458C7.1822 11.3011 10.8706 7.61269 15.4153 7.61269ZM15.4153 0.202881C14.0486 0.202881 12.9454 1.30612 12.9454 2.67282V4.59937C7.77499 5.71907 3.88895 10.3296 3.88895 15.8458V25.7256L0.595703 29.0188V30.6654H30.235V29.0188L26.9417 25.7256V15.8458C26.9417 10.3296 23.0557 5.71907 17.8853 4.59937V2.67282C17.8853 1.30612 16.782 0.202881 15.4153 0.202881ZM13.7687 10.9059H17.062V17.4924H13.7687V10.9059ZM13.7687 20.7857H17.062V24.0789H13.7687V20.7857Z" fill="#404040"/>
</svg>
