<svg width="31" height="34" viewBox="0 0 31 34" fill="black" xmlns="http://www.w3.org/2000/svg">
<path d="M27.2855 3.58646H25.6388V0.293213H22.3456V3.58646H9.17258V0.293213H5.87933V3.58646H4.2327C2.40495 3.58646 0.955919 5.06843 0.955919 6.87971L0.939453 29.9325C0.939453 31.7438 2.40495 33.2257 4.2327 33.2257H27.2855C29.0967 33.2257 30.5787 31.7438 30.5787 29.9325V6.87971C30.5787 5.06843 29.0967 3.58646 27.2855 3.58646ZM27.2855 29.9325H4.2327V13.4662H27.2855V29.9325ZM27.2855 10.173H4.2327V6.87971H27.2855V10.173ZM10.8192 20.0527H7.52595V16.7595H10.8192V20.0527ZM17.4057 20.0527H14.1125V16.7595H17.4057V20.0527ZM23.9922 20.0527H20.699V16.7595H23.9922V20.0527ZM10.8192 26.6392H7.52595V23.346H10.8192V26.6392ZM17.4057 26.6392H14.1125V23.346H17.4057V26.6392ZM23.9922 26.6392H20.699V23.346H23.9922V26.6392Z" fill="rgb(64,64,64)"/>
</svg>
