<svg width="37" height="28" viewBox="0 0 37 28" fill="none" xmlns="http://www.w3.org/2000/svg">
<path d="M25.9296 15.7646C28.1854 17.296 29.7662 19.3708 29.7662 22.1371V27.077H36.3527V22.1371C36.3527 18.5474 30.4743 16.4233 25.9296 15.7646Z" fill="#404040"/>
<path d="M23.1797 13.904C26.8187 13.904 29.7662 10.9565 29.7662 7.31746C29.7662 3.67842 26.8187 0.730957 23.1797 0.730957C22.4058 0.730957 21.6813 0.895619 20.9897 1.12615C22.3564 2.82217 23.1797 4.97925 23.1797 7.31746C23.1797 9.65567 22.3564 11.8127 20.9897 13.5088C21.6813 13.7393 22.4058 13.904 23.1797 13.904Z" fill="#404040"/>
<path d="M13.3 13.904C16.939 13.904 19.8865 10.9565 19.8865 7.31746C19.8865 3.67842 16.939 0.730957 13.3 0.730957C9.66091 0.730957 6.71345 3.67842 6.71345 7.31746C6.71345 10.9565 9.66091 13.904 13.3 13.904ZM13.3 4.02421C15.1112 4.02421 16.5932 5.50617 16.5932 7.31746C16.5932 9.12875 15.1112 10.6107 13.3 10.6107C11.4887 10.6107 10.0067 9.12875 10.0067 7.31746C10.0067 5.50617 11.4887 4.02421 13.3 4.02421Z" fill="#404040"/>
<path d="M13.3 15.5506C8.90347 15.5506 0.126953 17.7571 0.126953 22.1371V27.077H26.473V22.1371C26.473 17.7571 17.6964 15.5506 13.3 15.5506ZM23.1797 23.7837H3.4202V22.1536C3.74953 20.968 8.85407 18.8438 13.3 18.8438C17.7458 18.8438 22.8504 20.968 23.1797 22.1371V23.7837Z" fill="#404040"/>
</svg>
