<svg width="27" height="28" viewBox="0 0 27 28" fill="none" xmlns="http://www.w3.org/2000/svg">
<path d="M13.5001 4.02421C15.3114 4.02421 16.7934 5.50617 16.7934 7.31746C16.7934 9.12875 15.3114 10.6107 13.5001 10.6107C11.6889 10.6107 10.2069 9.12875 10.2069 7.31746C10.2069 5.50617 11.6889 4.02421 13.5001 4.02421ZM13.5001 20.4905C17.946 20.4905 23.0506 22.6146 23.3799 23.7837H3.6204C3.99912 22.5981 9.07073 20.4905 13.5001 20.4905ZM13.5001 0.730957C9.86111 0.730957 6.91365 3.67842 6.91365 7.31746C6.91365 10.9565 9.86111 13.904 13.5001 13.904C17.1392 13.904 20.0867 10.9565 20.0867 7.31746C20.0867 3.67842 17.1392 0.730957 13.5001 0.730957ZM13.5001 17.1972C9.10366 17.1972 0.327148 19.4037 0.327148 23.7837V27.077H26.6732V23.7837C26.6732 19.4037 17.8966 17.1972 13.5001 17.1972Z" fill="#404040"/>
</svg>
