<svg width="37" height="37" viewBox="0 0 37 37" fill="none" xmlns="http://www.w3.org/2000/svg">
<path d="M35.7025 30.2687L20.7512 15.3174C22.2825 11.4643 21.4922 6.91959 18.38 3.79101C14.5928 0.00376855 8.69788 -0.342023 4.49898 2.7207L10.822 9.06021L8.48382 11.3819L2.17724 5.07537C-0.88548 9.2578 -0.539688 15.1692 3.24755 18.94C6.31027 22.0027 10.7726 22.8095 14.5928 21.377L29.5936 36.3777C30.2357 37.0199 31.2731 37.0199 31.9153 36.3777L35.7025 32.5905C36.3612 31.9648 36.3612 30.9274 35.7025 30.2687ZM30.7627 32.9033L15.1856 17.3263C14.1811 18.0672 13.0614 18.5118 11.8923 18.6765C9.65292 19.0058 7.29825 18.3307 5.58576 16.6182C4.02146 15.0704 3.29695 12.9956 3.41221 10.9538L8.50028 16.0419L15.482 9.06021L10.3939 3.97214C12.4357 3.85687 14.494 4.58139 16.0583 6.12921C17.8366 7.90757 18.5118 10.361 18.1001 12.6499C17.9025 13.819 17.4085 14.9057 16.6511 15.8772L32.2117 31.4378L30.7627 32.9033Z" fill="#404040"/>
</svg>
